<?xml version="1.0" encoding="utf-8"?>
<!-- Generator: Adobe Illustrator 16.0.0, SVG Export Plug-In . SVG Version: 6.00 Build 0)  -->
<!DOCTYPE svg PUBLIC "-//W3C//DTD SVG 1.1//EN" "http://www.w3.org/Graphics/SVG/1.1/DTD/svg11.dtd">
<svg version="1.1" id="Layer_1" xmlns="http://www.w3.org/2000/svg" xmlns:xlink="http://www.w3.org/1999/xlink" x="0px" y="0px"
	 width="67px" height="67px" viewBox="124 0 67 67" enable-background="new 124 0 67 67" xml:space="preserve">
<g>
	<polygon fill="#1D1D1B" points="152.391,41.174 165.18,33.5 152.391,25.827 	"/>
	<path fill="#1D1D1B" d="M157.5,0.081c-18.457,0-33.42,14.962-33.42,33.419s14.963,33.42,33.42,33.42s33.42-14.963,33.42-33.42
		S175.957,0.081,157.5,0.081z M177.955,35.15c0,3.531-0.41,7.063-0.41,7.063s-0.398,3.008-1.625,4.33
		c-1.557,1.736-3.299,1.746-4.098,1.85c-5.727,0.438-14.322,0.453-14.322,0.453s-10.637-0.104-13.91-0.438
		c-0.91-0.182-2.953-0.131-4.51-1.865c-1.227-1.322-1.625-4.332-1.625-4.332s-0.41-3.529-0.41-7.063v-3.31
		c0-3.532,0.41-7.062,0.41-7.062s0.398-3.01,1.625-4.334c1.557-1.737,3.299-1.748,4.098-1.845
		c5.725-0.444,14.313-0.444,14.313-0.444h0.018c0,0,8.588,0,14.314,0.444c0.799,0.098,2.541,0.108,4.098,1.845
		c1.227,1.325,1.625,4.334,1.625,4.334s0.41,3.53,0.41,7.063V35.15L177.955,35.15z"/>
</g>
</svg>
