<?xml version="1.0" encoding="utf-8"?>
<!-- Generator: Adobe Illustrator 16.0.0, SVG Export Plug-In . SVG Version: 6.00 Build 0)  -->
<!DOCTYPE svg PUBLIC "-//W3C//DTD SVG 1.1//EN" "http://www.w3.org/Graphics/SVG/1.1/DTD/svg11.dtd">
<svg version="1.1" id="Layer_1" xmlns="http://www.w3.org/2000/svg" xmlns:xlink="http://www.w3.org/1999/xlink" x="0px" y="0px"
	 width="67px" height="67px" viewBox="222 0 67 67" enable-background="new 222 0 67 67" xml:space="preserve">
<path fill="#1D1D1B" d="M263.771,7.069c-5.908,2.15-9.643,7.692-9.217,13.762l0.143,2.341l-2.365-0.286
	c-8.6-1.097-16.117-4.824-22.5-11.087l-3.121-3.106l-0.801,2.293c-1.701,5.116-0.613,10.518,2.93,14.148
	c1.889,2.009,1.465,2.295-1.793,1.098c-1.137-0.38-2.129-0.666-2.227-0.524c-0.328,0.335,0.805,4.683,1.701,6.404
	c1.23,2.39,3.736,4.729,6.477,6.117l2.318,1.1l-2.742,0.046c-2.645,0-2.738,0.049-2.455,1.053c0.945,3.108,4.678,6.406,8.838,7.841
	l2.93,1.002l-2.549,1.529c-3.781,2.203-8.225,3.441-12.67,3.533c-2.129,0.049-3.879,0.24-3.879,0.386
	c0,0.476,5.768,3.15,9.123,4.205c10.068,3.106,22.027,1.765,31.01-3.538c6.381-3.775,12.762-11.278,15.74-18.544
	c1.607-3.869,3.217-10.944,3.217-14.335c0-2.201,0.141-2.487,2.789-5.113c1.559-1.529,3.021-3.203,3.309-3.679
	c0.471-0.91,0.422-0.91-1.988-0.097c-4.018,1.432-4.586,1.243-2.6-0.908c1.469-1.529,3.217-4.302,3.217-5.115
	c0-0.141-0.709,0.097-1.514,0.526c-0.85,0.478-2.742,1.196-4.16,1.624l-2.553,0.815l-2.314-1.58
	c-1.277-0.859-3.07-1.815-4.018-2.102C269.635,6.209,265.945,6.302,263.771,7.069z"/>
</svg>
